<svg width="1187" height="440" viewBox="0 0 1187 440" fill="none" xmlns="http://www.w3.org/2000/svg"
	class="text-white">
	<path
		d="M240.719 283.153C239.412 283.207 238.172 282.553 237.518 281.419C235.49 277.964 232.289 273.495 227.353 269.413C224.031 266.679 210.852 256.594 193.75 259.302C173.514 262.503 163.989 281.045 161.748 285.394C154.358 299.774 155.946 313.461 156.879 318.717C157.746 323.679 160.841 341.234 175.568 350.679C192.376 361.444 212.626 354.134 222.964 350.412C241.346 343.782 252.939 331.63 258.915 324.066C259.555 323.252 260.516 322.772 261.543 322.732C273.722 322.252 285.888 321.772 298.067 321.291C300.468 321.198 302.269 323.452 301.629 325.774C300.255 330.749 297.987 336.845 294.198 343.222C287.142 355.068 278.511 361.644 271.774 366.673C255.807 378.585 240.613 383.081 231.262 385.762C221.19 388.657 208.798 392.085 192.296 391.178C182.665 390.645 168.565 389.871 153.758 380.853C136.056 370.075 128.346 354.334 125.798 348.571C119.088 333.417 117.714 317.556 119.542 301.362C121.289 285.768 126.225 271.201 135.656 258.475C146.301 244.121 160.014 233.529 176.529 226.766C190.029 221.23 204.009 221.724 218.042 224.432C235.25 227.753 250.871 234.37 263.33 247.069C268.386 252.218 273.055 259.048 274.015 260.422C278.071 266.225 281.179 271.628 283.527 276.19C284.7 278.484 283.113 281.232 280.525 281.352C267.265 281.953 253.992 282.566 240.733 283.166L240.719 283.153Z"
		fill="currentColor" />
	<path
		d="M813.139 386.829H848.676C849.637 386.829 850.517 387.376 850.904 388.257C851.931 390.538 853.732 393.659 856.867 396.434C861.669 400.716 866.818 402.01 870.567 402.544C875.529 403.251 880.825 403.317 885.734 402.424C896.726 400.409 903.423 393.179 905.157 382.161C905.384 380.747 905.984 378.199 906.077 368.781C906.104 365.779 906.091 363.031 906.05 360.577C906.01 358.363 903.289 357.309 901.795 358.936C898.94 362.044 895.032 365.486 889.883 368.341C880.798 373.396 872.434 374.13 868.326 374.384C856.947 375.064 846.209 372.743 835.964 367.874C822.904 361.671 810.925 353.734 799.973 344.343C789.622 335.472 783.499 324.373 783.805 310.366C783.992 301.989 786.393 294.145 790.795 287.102C801.08 270.654 814.073 256.634 830.348 246.002C845.928 235.837 862.99 233.303 880.958 238.332C885.774 239.679 889.336 241.56 891.23 242.694C891.83 243.041 892.257 243.321 892.591 243.534C895.059 245.108 898.754 247.416 904.276 250.818C904.983 251.258 905.904 250.751 905.917 249.924C905.944 247.843 905.97 245.749 906.011 243.668C906.024 242.601 906.891 241.747 907.958 241.747L936.959 241.774C938.373 241.774 939.547 242.881 939.6 244.295C939.907 252.085 940.294 263.01 940.574 276.07C940.88 290.637 940.747 293.251 940.947 305.444C941.401 333.511 942.468 342.635 942.375 368.207C942.321 384.468 941.854 392.512 938.453 402.45C936.265 408.853 933.077 417.831 924.619 425.448C916.749 432.558 908.585 435.012 900.168 436.893C882.453 440.869 864.764 440.108 847.689 433.732C836.697 429.623 827.786 423.54 821.343 415.256C816.661 409.227 809.885 401.93 811.165 392.766C811.525 390.191 812.406 388.15 813.113 386.816L813.139 386.829ZM905.25 304.897C905.25 304.897 905.183 304.897 905.157 304.897C905.157 303.35 905.277 301.802 905.143 300.268C903.823 285.021 893.618 273.655 878.771 271.748C873.808 271.108 868.486 271.308 863.617 272.415C856.84 273.949 851.571 277.164 841.326 283.58C833.963 288.182 830.228 290.557 827.693 293.652C825.639 296.159 819.249 303.977 820.903 313.008C822.09 319.504 826.813 323.186 833.723 328.588C837.404 331.47 845.462 337.619 857.881 339.767C861.496 340.394 869.58 341.701 879.344 338.873C883.16 337.766 889.856 335.818 895.659 330.042C904.997 320.745 905.277 308.219 905.237 304.897H905.25Z"
		fill="currentColor" />
	<path
		d="M446.671 276.67C437.16 260.676 421.126 254.126 419.165 253.339C402.33 246.669 386.949 250.164 379.506 252.672C369.154 256.14 361.844 261.796 357.455 265.945C356.215 267.119 354.187 266.719 353.453 265.171C351.252 260.516 348.824 253.713 348.197 245.255C347.757 239.252 348.344 234.023 349.171 229.928C349.611 227.74 348.117 225.632 345.903 225.299C343.022 224.845 340.527 224.405 338.526 224.018C324.199 221.257 319.277 221.991 312.634 221.724C310.206 221.631 308.112 223.431 307.858 225.846C305.937 244.161 308.045 257.955 310.606 267.573C312.1 273.202 313.554 276.71 317.809 291.931C321.518 305.204 323.452 311.954 324.559 318.343C326.227 327.948 327.894 337.579 326.147 349.718C325.133 356.775 323.239 362.791 321.291 367.594C320.077 370.582 322.185 373.85 325.413 373.97C333.377 374.264 341.354 374.57 349.318 374.864C351.666 374.957 353.92 373.81 355.187 371.822C358.642 366.406 361.177 361.137 361.697 356.055C363.458 339.007 362.444 319.344 362.111 313.541C363.338 308.232 366.153 299.935 373.089 292.504C375.464 289.97 388.363 276.15 403.29 279.445C408.493 280.592 411.934 283.38 413.188 284.421C421.659 291.437 423.127 302.309 423.954 309.246C425.901 325.494 423.327 352.667 422.553 359.136C422.406 360.377 421.979 363.779 423.94 365.553C424.754 366.286 425.728 366.526 426.395 366.62C435.319 366.687 444.243 366.753 453.181 366.82C455.609 366.82 457.61 364.926 457.783 362.511C458.703 349.798 458.97 339.02 458.997 330.709C459.064 310.953 458.61 312.901 456.422 302.856C454.688 294.906 451.593 284.941 446.671 276.644V276.67Z"
		fill="currentColor" />
	<path
		d="M575.733 174.275C575.68 175.675 574.532 176.796 573.132 176.849C567.169 177.063 561.619 177.33 556.07 177.383C543.904 177.49 531.752 177.436 519.586 177.53C513.903 177.57 509.461 177.65 507.407 177.676C499.657 177.796 492.987 177.943 487.798 178.077C486.45 178.117 485.33 179.144 485.196 180.478C484.743 184.987 485.103 188.655 485.53 191.203C485.823 192.95 488.571 208.411 496.135 209.772C497.482 210.012 498.616 209.732 498.869 209.678C502.698 208.691 503.498 204.516 507.073 200.381C509.381 197.713 511.742 196.365 514.25 194.925C516.958 193.364 522.481 190.776 530.751 190.776C543.864 190.656 556.991 190.522 570.104 190.402C571.864 190.389 573.158 192.043 572.745 193.751C572.425 195.031 572.091 196.272 571.651 197.472C570.344 201.034 568.503 205.049 566.862 207.371C561.913 214.347 554.629 212.346 541.69 218.883C540.062 219.71 534.58 222.578 528.684 227.62C517.638 237.078 517.398 243.708 508.434 247.376C502.498 249.791 497.069 249.15 495.188 248.857C492.173 248.377 487.624 247.043 480.341 240.907C470.416 232.543 465.053 223.378 463.399 220.443C453.421 202.715 451.767 186.507 450.006 169.139C448.792 157.227 449.112 149.036 451.087 140.605C451.914 137.084 453.114 132.095 456.196 126.345C457.25 124.384 463.012 113.939 475.312 106.296C490.692 96.731 506.353 97.7848 515.224 98.2651C524.882 98.7986 534.166 100.92 542.877 105.242C557.484 112.472 567.409 123.784 572.091 139.445C575.439 150.65 576.253 162.122 575.773 174.288L575.733 174.275ZM532.045 154.225C533.606 154.225 534.82 152.905 534.74 151.344C534.166 140.485 524.188 131.534 510.889 131.227C496.975 130.894 485.903 139.511 484.596 151.184C484.409 152.798 485.636 154.225 487.264 154.225H532.045Z"
		fill="currentColor" />
	<path
		d="M591.981 243.841C591.287 241.173 590.593 238.465 589.873 235.677C589.566 234.463 590.42 233.263 591.66 233.169C600.891 232.476 610.123 231.782 619.34 231.088C620.341 231.008 621.248 231.702 621.448 232.689C622.195 236.251 622.955 239.719 623.556 243.214C627.691 266.905 624.73 289.996 617.446 312.687C612.764 327.268 610.683 333.044 608.268 348.558C607.201 355.374 606.681 361.177 606.414 365.379C606.347 366.446 605.454 367.26 604.386 367.247C592.181 367.06 579.975 366.86 567.769 366.673C566.568 366.66 565.661 365.593 565.808 364.405C566.208 361.404 566.608 358.376 567.022 355.201C567.262 353.333 565.048 352.173 563.674 353.453C558.204 358.589 548.52 365.779 534.7 368.381C530.898 369.101 519.466 370.382 506.019 366.26C488.598 360.91 476.859 344.583 476.966 326.361C477.006 319.33 477.873 312.407 479.7 305.591C481.101 300.348 483.315 295.626 486.397 291.477C487.451 290.05 489.812 287.102 493.52 284.154C499.763 279.178 505.833 277.43 509.154 276.323C525.669 270.814 538.222 259.955 540.956 257.594C550.174 249.617 551.174 245.068 559.738 241.813C567.342 238.932 573.732 239.799 575.186 240.013C581.069 240.906 585.631 243.481 588.832 245.922C590.353 247.083 592.474 245.695 591.994 243.841H591.981ZM550.841 332.897C564.261 330.002 572.691 321.652 575.973 318.303C581.802 312.34 586.204 304.91 589.086 295.959C590.14 292.678 590.34 288.929 590.126 285.448C589.619 277.417 583.67 272.121 575.653 272.375C572.771 272.468 569.757 272.935 567.049 273.922C552.068 279.431 539.355 288.249 529.871 301.162C527.016 305.057 524.842 309.726 523.428 314.355C522.361 317.876 522.507 321.198 523.695 324.066C525.629 328.708 529.884 330.816 531.805 331.75C539.049 335.311 546.385 333.844 550.828 332.884L550.841 332.897Z"
		fill="currentColor" />
	<path
		d="M1083.99 312.007C1083.82 313.274 1082.69 314.208 1081.43 314.195C1071.28 314.168 1061.48 314.021 1051.72 314.261C1045.88 314.408 1039.98 314.795 1034.19 315.622C1028.4 316.449 1019.98 319.21 1014.94 321.678C1009.09 324.546 1003.38 327.761 997.441 330.923C996.48 331.43 995.947 332.483 996.094 333.551C996.36 335.485 996.587 337.366 997.081 339.153C998.321 343.582 1000.7 346.744 1003.88 348.411C1007.79 350.452 1011.89 349.598 1014.53 348.971C1026.61 346.143 1034.99 334.684 1038.21 329.709C1038.67 329.002 1039.45 328.562 1040.3 328.548C1052.79 328.228 1065.27 327.908 1077.75 327.588C1079.47 327.548 1080.75 329.162 1080.31 330.829C1079.4 334.311 1077.75 337.566 1076.07 340.767C1070.84 350.719 1063.1 358.389 1053.75 364.459C1041.84 372.196 1028.99 377.865 1014.97 380.306C995.093 383.775 978.178 378.665 965.866 361.857C958.542 351.866 955.834 340.447 956.235 328.188C956.821 310.126 961.77 293.118 969.294 276.884C972.776 269.347 977.031 262.103 981.593 255.153C992.105 239.145 1007.58 233.569 1026.08 235.437C1030.82 235.917 1035.62 236.771 1040.13 238.252C1065.58 246.536 1079.81 264.358 1083.78 290.61C1084.83 297.587 1085 304.59 1083.98 311.967L1083.99 312.007ZM996.374 300.722C996.107 302.803 998.268 304.337 1000.14 303.363C1006.07 300.255 1011.74 297.053 1017.8 295.079C1024.77 292.798 1032.26 292.051 1039.79 290.784C1041.1 290.57 1042.02 289.383 1041.93 288.062C1041.76 285.554 1041.05 281.873 1038.59 278.284C1035.77 274.122 1032.08 272.281 1030.5 271.494C1023.59 268.079 1016.61 268.479 1010.34 272.908C1007.42 274.976 1004.82 277.897 1002.92 280.965C999.162 287.022 997.267 293.692 996.36 300.735L996.374 300.722Z"
		fill="currentColor" />
	<path
		d="M178.41 186.147C180.664 188.988 184.279 191.856 192.056 194.03C208.037 198.486 212.786 191.936 226.272 193.884C245.522 196.672 248.536 211.852 267.652 211.826C269.96 211.826 276.563 211.746 283.153 208.411C303.323 198.219 309.312 164.83 303.323 140.618C296.519 113.098 274.469 98.4781 267.972 94.5028C267.972 94.5028 252.525 81.5767 236.09 79.0421C231.928 78.4018 227.513 78.3218 223.351 78.9087C222.204 79.0688 219.536 79.6691 215.347 81.4566C214.147 81.9635 205.996 85.5119 199.139 91.6615C189.228 100.559 184.999 112.258 182.118 120.195C179.45 127.559 177.756 139.324 174.368 162.829C174.261 163.603 174.047 165.43 173.954 167.898C173.554 179.584 177.169 184.613 178.396 186.16L178.41 186.147ZM245.055 163.349C243.107 162.602 238.025 162.976 227.873 163.683C220.643 164.176 217.175 164.776 212.973 162.735C211.679 162.108 208.411 160.521 206.61 157.186C205.129 154.465 204.929 151.117 210.998 135.096C216.361 120.929 218.335 118.728 220.39 117.114C225.792 112.858 231.888 112.471 233.703 112.378C246.762 111.711 256.273 121.956 259.368 125.278C272.455 139.351 278.137 163.096 269.373 172.433C268.693 173.154 265.491 176.569 261.383 176.409C254.686 176.142 253.926 166.751 245.041 163.362L245.055 163.349Z"
		fill="currentColor" />
	<path
		d="M1183.68 162.802H1101.89C1100.61 162.802 1099.53 163.776 1099.42 165.057C1098.6 175.328 1103.35 183.879 1111.5 187.054C1122.07 191.176 1132.05 187.574 1139.71 176.769C1140.18 176.115 1140.92 175.702 1141.74 175.702H1180.05C1181.66 175.702 1182.86 177.236 1182.44 178.797C1180.86 184.559 1178.22 189.642 1174.94 194.377C1164.01 210.145 1148.74 218.816 1129.85 221.35C1116.7 223.111 1103.85 221.737 1091.38 216.788C1087.15 215.107 1083.11 212.919 1079.47 210.198C1067.23 201.047 1060.66 189.255 1061.81 174.514C1062.41 166.831 1063.73 159.2 1064.77 151.557C1066.19 141.005 1067.69 130.453 1069.12 119.902C1071.73 100.599 1083.32 89.6739 1101.72 85.4052C1116.82 81.8969 1131.88 82.4838 1146.39 88.0598C1168.26 96.4772 1180.88 112.778 1185.34 135.563C1186.92 143.593 1186.8 151.677 1186.14 160.534C1186.05 161.815 1184.97 162.816 1183.68 162.816V162.802ZM1142.07 139.604C1143.46 139.604 1144.62 138.444 1144.54 137.057C1143.88 125.478 1134.12 116.834 1121.58 116.473C1112.14 116.207 1102.13 121.476 1100.89 136.95C1100.77 138.377 1101.92 139.604 1103.36 139.604H1142.06H1142.07Z"
		fill="currentColor" />
	<path
		d="M738.317 370.528C737.33 370.528 736.463 369.888 736.196 368.941C733.782 360.31 731.887 350.492 731.234 339.62C730.22 322.625 732.234 303.19 732.434 301.349C734.382 283.153 737.05 275.55 731.874 269.627C727.579 264.718 720.815 264.331 718.174 264.184C704.314 263.411 692.015 275.136 688.16 286.742C687.6 288.436 687.146 289.81 686.719 294.812C684.785 317.917 683.744 341.061 683.931 364.259C683.931 365.126 683.931 365.98 683.931 366.887C683.931 368.634 682.517 370.048 680.77 370.048H645.419C643.925 370.048 642.725 368.848 642.711 367.354C642.711 366.66 642.711 365.966 642.725 365.273C643.112 347.918 645.753 330.829 649.128 313.848C650.528 306.765 653.343 287.742 654.117 265.091C654.504 253.699 654.237 244.095 653.877 237.198C653.81 235.957 654.797 234.917 656.038 234.904C665.576 234.784 675.114 234.677 684.638 234.557C685.839 234.543 686.826 235.491 686.853 236.691C686.933 239.893 687.026 243.094 687.106 246.282C687.159 248.217 689.52 249.164 690.854 247.763C692.348 246.202 694.163 244.548 696.31 242.947C703.167 237.878 709.69 236.131 713.145 235.424C723.977 233.196 734.675 233.823 745.067 237.692C762.275 244.095 769.866 257.941 766.104 275.883C764.423 283.887 762.382 291.824 761.008 299.881C758.367 315.355 762.169 328.602 765.01 340.047C767.264 349.131 770.639 358.549 771.613 361.217C772.467 363.552 773.267 365.646 773.974 367.434C774.548 368.874 773.481 370.422 771.933 370.422C760.714 370.462 749.482 370.488 738.264 370.528H738.317Z"
		fill="currentColor" />
	<path
		d="M718.201 127.025C706.675 127.212 695.15 127.399 683.624 127.586C681.623 127.612 679.836 126.385 679.156 124.504C677.595 120.262 673.82 112.939 665.536 109.404C655.117 104.961 645.379 109.857 642.151 111.471C638.936 113.085 636.922 114.966 635.148 116.554C632.066 119.328 622.195 128.213 622.875 136.91C623.422 143.967 630.386 143.9 639.723 155.025C651.142 168.632 649.982 179.771 657.839 181.145C663.948 182.212 670.525 176.582 671.499 175.742C675.314 172.474 678.569 167.111 679.116 166.217L679.142 166.177C679.823 165.07 681.05 164.417 682.344 164.457C694.736 164.883 707.129 165.324 719.522 165.751C721.843 165.831 723.483 168.072 722.83 170.313C720.762 177.329 716.253 188.255 706.248 197.873C701.913 202.048 689.054 214.414 669.484 214.547C668.084 214.547 649.115 214.414 635.094 200.914C625.29 191.483 628.251 185.48 616.552 173.954C606.588 164.136 602.292 166.377 596.329 157.947C587.819 145.901 589.526 131.334 590.086 126.532C590.446 123.49 592.287 110.511 602.426 98.3316C608.202 91.395 615.832 85.9523 625.263 82.1239C647.474 73.1062 670.045 73.3196 691.895 83.5112C695.363 85.1253 700.552 87.8866 706.182 93.0357C715.626 101.667 719.442 111.124 720.375 113.619C721.456 116.46 722.176 119.115 722.656 121.476C723.243 124.304 721.082 126.945 718.201 126.999V127.025Z"
		fill="currentColor" />
	<path
		d="M1044.41 78.5753C1045.49 78.5753 1046.46 79.2423 1046.85 80.2428C1053.8 98.1847 1052.51 112.125 1051.28 119.021C1049.51 128.999 1045.6 137.15 1041.28 146.141C1036.21 156.679 1031.52 163.629 1027.63 169.592C1021.37 179.17 1012.58 193.19 1002.23 211.626C1001.71 212.546 1000.74 213.12 999.696 213.12H952.927C951.873 213.12 950.899 212.493 950.485 211.519C949.152 208.384 948.778 204.969 948.351 201.621C947.204 192.777 947.911 184.039 950.619 175.502C952.486 169.619 954.407 163.736 956.115 157.8C957.742 152.13 958.836 146.368 958.102 140.418C957.115 132.428 953.634 125.518 947.884 120.102C942.508 115.046 936.492 110.671 930.663 106.108C925.687 102.213 920.378 98.7049 915.575 94.5963C911.72 91.288 908.305 87.4996 905.864 82.804C904.317 79.8426 906.064 78.7887 908.119 78.7887L949.365 78.722C950.059 78.722 950.739 79.0022 951.233 79.4957C954.554 82.804 959.436 87.6596 965.373 93.5158C976.738 104.694 978.072 106.229 981.193 109.79C987.276 116.727 991.665 124.637 993.106 133.988C994.093 140.418 993.226 146.634 991.372 152.744C990.118 156.879 988.45 160.881 986.983 164.95C986.369 166.644 985.809 168.365 985.582 170.246C997.481 156.546 1003.94 143.446 1007.45 134.775C1011.3 125.238 1015.33 114.606 1014.57 100.386C1014.17 92.9822 1012.58 86.7259 1010.91 81.9769C1010.31 80.2428 1011.58 78.4419 1013.41 78.4419C1023.75 78.4819 1034.07 78.5353 1044.41 78.5753Z"
		fill="currentColor" />
	<path
		d="M798.133 78.5223H817.675C819.529 78.5223 821.13 79.8162 821.53 81.6171C823.598 90.7681 825.599 99.639 827.613 108.577C828.174 111.044 826.293 113.406 823.758 113.406H802.495C799.787 113.406 797.892 116.074 798.76 118.648C800.774 124.598 801.721 129.907 802.174 134.216C803.228 144.207 801.988 152.784 801.828 153.865C799.96 166.244 795.998 171.233 799.026 175.168C799.627 175.956 800.881 177.97 808.871 178.477C813.553 178.77 818.236 178.917 823.225 179.077C825.866 179.157 827.653 181.758 826.853 184.266C823.865 193.604 822.037 202.968 821.69 212.36C821.063 212.813 820.823 213.133 820.583 213.133C808.698 213.32 796.759 214.2 785.02 211.613C776.069 209.638 768.412 205.943 762.902 199.687C761.502 198.099 758.14 194.218 756.299 188.135C755.566 185.733 754.859 182.265 755.139 176.796C755.806 163.976 760.835 162.402 761.769 151.477C762.089 147.835 762.809 139.365 758.834 131.361C757.62 128.933 755.165 124.904 753.738 118.541C753.551 117.688 753.391 116.874 753.271 116.127C752.951 114.219 751.31 112.819 749.376 112.819H740.785C738.597 112.819 736.823 111.044 736.823 108.857V82.4708C736.823 80.2831 738.597 78.5089 740.785 78.5089H748.856C751.003 78.5089 752.778 76.7881 752.818 74.6538C752.964 66.1964 752.751 57.9524 752.898 49.6551C752.938 47.5074 754.712 45.7866 756.86 45.7866H790.209C792.396 45.7866 794.171 47.5608 794.171 49.7485V74.5604C794.171 76.7481 795.945 78.5223 798.133 78.5223Z"
		fill="currentColor" />
	<path
		d="M327.641 189.602C323.599 188.761 321.465 184.293 323.372 180.637C329.522 168.872 336.685 151.05 338.486 128.559C338.486 128.559 341.314 93.2624 326.614 60.8202C325.213 57.7387 323.612 54.3771 323.612 54.3771C321.798 50.6954 320.451 48.3742 318.703 44.8392C317.009 41.3709 315.889 38.743 315.515 37.8759C313.861 34.0874 310.54 26.6705 303.483 11.3565C301.695 7.47469 304.257 2.96587 308.512 2.539C316.823 1.6986 325.133 0.858195 333.431 0.0311327C336.098 -0.235662 338.646 1.23171 339.74 3.68621C344.062 13.3308 349.465 26.2837 354.801 41.8378C365.686 73.4929 373.863 97.291 373.383 126.585C373.156 140.725 370.782 163.656 358.309 191.029C357.095 193.684 354.214 195.151 351.359 194.551L327.614 189.615L327.641 189.602Z"
		fill="currentColor" />
	<path
		d="M848.757 78.6689H883.84C885.027 78.6689 886.068 79.5227 886.281 80.6966C887.242 86.0725 888.802 90.3145 890.096 93.2626C893.218 100.346 897.02 105.322 899.701 108.31C902.902 111.871 906.264 115.286 909.412 118.888C912.68 122.637 915.322 126.785 916.936 131.548C918.977 137.63 918.977 143.793 916.976 149.77C915.175 155.159 913.067 160.521 910.413 165.537C905.197 175.409 901.155 181.065 898.767 185.013C895.272 190.789 890.843 199.433 887.348 211.372C887.042 212.44 886.068 213.187 884.96 213.187H848.13C846.596 213.187 845.435 211.813 845.675 210.305C845.969 208.398 846.249 206.597 846.662 204.836C848.423 197.072 851.691 189.975 855.853 183.199C859.082 177.943 862.27 172.634 864.978 167.098C871.434 153.932 871.554 140.605 864.978 127.399C860.522 118.488 858.268 114.686 854.839 108.136C851.771 102.294 848.183 93.6094 846.302 81.5903C846.062 80.0696 847.223 78.6956 848.757 78.6956V78.6689Z"
		fill="currentColor" />
	<path
		d="M856.787 63.1147C848.143 59.9266 840.633 51.3224 840.806 41.7846C840.993 31.7398 847.823 23.189 857.761 20.6678C862.457 19.4806 867.179 19.3472 871.954 20.4143C883.386 22.9622 890.51 32.2867 889.803 43.9456C889.149 54.7107 878.811 62.2877 869.607 64.1019C867.672 64.4887 862.563 65.2358 856.8 63.1147H856.787Z"
		fill="currentColor" />
	<path
		d="M382.64 210.986C379.599 209.958 378.278 206.41 379.919 203.649C385.362 194.498 391.591 181.505 395.166 165.084C395.847 161.962 398.435 149.556 398.034 132.028C397.567 111.458 393.325 98.1449 387.002 75.3473C383.187 61.5941 377.985 42.0648 372.235 17.8399C371.515 14.8251 373.676 11.8637 376.771 11.6369C385.628 10.9832 394.486 10.3429 403.357 9.6893C405.785 9.51588 407.986 11.09 408.599 13.4378C411.547 24.7365 415.429 40.3706 419.498 59.0329C428.782 101.587 433.411 122.863 432.584 144.741C431.971 160.828 428.569 186.187 413.308 216.735C412.188 218.989 409.56 220.083 407.172 219.269C398.995 216.508 390.804 213.733 382.627 210.972L382.64 210.986Z"
		fill="currentColor" />
	<path
		d="M122.089 119.717C120.801 119.731 119.605 119.019 119.007 117.828C117.166 114.215 114.191 109.52 109.513 105.168C106.353 102.239 93.7768 91.4407 76.7524 93.6169C56.5993 96.1762 46.3233 114.844 43.9154 119.238C35.94 133.718 36.8909 147.801 37.5658 153.221C38.5934 161.474 40.6485 176.474 54.5748 186.643C74.3751 201.11 101.001 193.131 103.531 192.337C112.289 189.572 118.592 185.261 122.565 181.976C123.562 181.141 124.942 180.813 126.276 181.087C137.457 183.427 148.638 185.781 159.804 188.121C162.549 188.696 163.899 191.502 162.426 193.651C159.374 198.14 154.972 203.505 148.699 208.692C142.258 214.016 136.43 217.027 132.749 218.888C117.979 226.389 104.697 228.51 100.586 229.085C89.0069 230.714 80.51 229.865 69.2218 228.743C53.1331 227.141 45.6792 224.171 42.7037 222.899C39.0688 221.352 35.3419 219.368 31.5996 216.794C14.6059 205.12 7.68881 188.71 5.43424 182.715C-0.501275 166.935 -1.1301 150.634 1.41588 134.088C3.86984 118.157 9.40658 103.403 19.3298 90.7017C30.5106 76.372 44.5595 65.9977 61.2005 59.6336C74.8046 54.4327 88.6081 55.4318 102.35 58.7029C119.206 62.713 134.359 70.0489 146.077 83.5026C150.831 88.9635 155.141 96.1215 156.015 97.5586C159.758 103.649 162.58 109.301 164.681 114.064C165.739 116.459 164.037 119.21 161.475 119.252C148.331 119.402 135.187 119.553 122.043 119.703L122.089 119.717Z"
		fill="currentColor" />
</svg>