<svg width="282" height="107" viewBox="0 0 282 107" fill="none" xmlns="http://www.w3.org/2000/svg">
<path d="M37.2183 4.09739C37.0864 8.19281 36.959 12.1575 36.8187 16.5054C36.1187 15.8498 35.7037 15.4646 35.2926 15.0749C31.5642 11.5429 27.1281 10.0636 22.0376 10.6956C18.8368 11.0929 16.2381 12.5164 14.4933 14.6276C11.8843 17.7834 12.0484 21.5052 12.1301 23.3625C12.2144 25.2923 12.383 29.1397 15.2589 31.8841C17.9798 34.4797 21.5647 34.6015 24.6954 34.7073C25.5183 34.7355 28.4277 34.7464 31.265 33.7812C32.6226 33.3197 33.9325 32.6846 35.1923 31.8668C35.5056 31.6636 35.8273 31.4732 36.1509 31.2733C36.5492 32.1609 36.7737 41.6015 36.4617 44.8208C35.1871 45.1945 33.4551 45.6354 31.3725 45.9693C26.2955 46.7827 22.3805 46.4379 21.4347 46.3456C18.5125 46.0604 15.3702 45.7534 11.7299 43.9486C8.22219 42.2098 6.14534 40.0191 5.71428 39.5545C3.38329 37.0434 2.35323 34.5861 1.54321 32.6032C0.624454 30.3529 -0.159832 26.9375 0.0280364 22.123C0.080794 20.7758 -0.246045 16.2664 2.42593 11.5095C3.34018 9.88225 5.22788 6.60848 9.10106 4.01344C11.6694 2.29259 13.9818 1.62925 15.4519 1.21586C19.9955 -0.0595501 24.7482 0.0404329 29.6289 1.22291C32.2192 1.851 34.684 2.80724 37.2183 4.09739Z" fill="#E3FF0C"/>
<path d="M160.96 30.799C160.966 32.5198 161.284 33.9882 162.055 35.3277C163.252 37.4061 165.342 38.172 167.622 37.4113C170.167 36.5614 171.923 33.9792 171.789 31.2848C171.659 28.6878 169.672 26.2921 167.138 25.6775C164.082 24.9366 161.442 26.7408 161.038 29.8511C160.989 30.2247 160.975 30.6035 160.96 30.799ZM152.82 48.7887C155.552 48.6304 158.345 48.4683 161.178 48.3042C161.893 50.3436 163.393 50.9864 165.296 50.8896C167.527 50.7755 169.446 50.0455 170.528 47.9254C171.389 46.2411 171.401 44.4389 171.238 42.3585C170.598 42.8282 170.138 43.1647 169.679 43.5018C167.203 45.3207 164.456 46.0245 161.401 45.5354C158.551 45.0791 156.635 43.5031 155.842 40.7549C155.336 39.0007 154.996 37.1876 154.727 35.3789C154.329 32.7128 154.055 30.0273 153.743 27.3483C153.687 26.8677 153.681 26.378 153.693 25.8935C153.813 21.1603 156.598 18.1308 161.332 17.5745C164.72 17.1758 167.796 17.8597 170.404 20.1701C170.558 20.306 170.738 20.4118 171.073 20.6502C171.159 19.7971 171.23 19.0921 171.311 18.2942H181.045C181.105 18.7076 181.214 19.112 181.216 19.5171C181.243 27.5598 181.274 35.6026 181.258 43.6454C181.256 44.9343 181.084 46.2289 180.904 47.5082C180.407 51.0524 178.549 53.7577 175.506 55.5798C170.016 58.8651 164.19 59.3266 158.163 57.3C156.557 56.7604 155.145 55.8349 154.03 54.5236C152.617 52.8623 152.205 51.0325 152.82 48.7887Z" fill="#E3FF0C"/>
<path d="M54.2953 21.0513C54.6357 20.9026 54.7521 20.8853 54.8171 20.8187C58.2805 17.2546 62.5287 17.1764 66.896 18.3634C70.7145 19.401 72.5707 22.2973 73.171 26.0562C73.3145 26.9573 73.337 27.886 73.335 28.8019C73.3235 34.3086 73.2823 39.8159 73.2675 45.3226C73.2656 46.0084 73.2051 46.5403 72.4504 46.8903C69.6568 48.1868 66.7519 48.8803 63.4745 48.8085C63.4481 48.1856 63.3883 47.6158 63.4057 47.0479C63.544 42.5154 63.71 37.9835 63.8367 33.4504C63.8715 32.2115 63.8728 30.963 63.766 29.7293C63.5376 27.09 62.1627 25.7024 59.7088 25.5089C57.0117 25.2954 55.1324 26.5818 54.5475 29.1383C54.3578 29.9696 54.3339 30.8489 54.3179 31.7071C54.2323 36.296 54.175 40.8843 54.101 45.4732C54.0933 45.9494 54.0361 46.425 54.0013 46.9133C50.5534 46.5871 47.1904 46.2686 43.6409 45.9328C43.4234 30.6996 43.5997 15.4543 43.6563 0C47.1679 0.324301 50.4846 0.630016 53.9672 0.951112C54.0766 7.66016 54.1847 14.2711 54.2953 21.0513Z" fill="#E3FF0C"/>
<path d="M47.0265 60.9832C47.9742 63.4334 48.5474 69.5625 48.0906 71.9672C47.8899 71.8742 47.6911 71.8204 47.5392 71.705C42.9178 68.1819 37.8055 67.9826 32.5908 69.8586C28.0595 71.489 24.674 75.6992 25.8932 80.7367C26.958 85.1353 32.0729 89.0705 36.5978 89.5255C40.3571 89.9037 43.6693 88.8744 46.5845 86.5107C47.0381 86.1428 47.4878 85.7704 48.1222 85.2494C48.3705 86.9677 48.5146 88.5001 48.8292 89.9966C49.1503 91.5207 49.6386 93.0095 50.0607 94.5387C50.0259 94.6035 50.0008 94.7432 49.923 94.7836C45.9572 97.3927 43.8533 97.5933 40.417 98.406C34.1568 99.5622 27.7146 98.8694 22.7657 95.0848C13.1407 87.7239 13.416 76.8708 17.1547 69.2125C18.2929 66.8815 20.2353 64.5108 22.1095 63.2764C24.0306 62.0106 27.5711 60.7237 30.6028 60.1033C34.2714 59.6213 35.5665 59.4483 39.1836 59.6828C41.8253 59.854 44.4709 60.0975 47.0265 60.9832Z" fill="#E3FF0C"/>
<path d="M217.396 20.4713C217.381 20.3271 217.367 20.1829 217.353 20.0393C216.78 19.9528 216.211 19.8099 215.636 19.7888C211.383 19.6317 207.386 20.686 203.564 22.4537C202.846 22.7863 202.196 23.3227 201.606 23.863C200.976 24.4411 200.535 25.1705 200.535 26.2972C206.469 24.9314 211.8 22.3203 217.396 20.4713ZM230.438 23.0356C225.018 22.096 220.211 23.5656 215.478 25.3326C210.916 27.0355 206.398 28.857 201.863 30.6317C201.769 30.6682 201.7 30.7675 201.531 30.9156C201.848 32.1058 202.673 32.8761 203.815 33.1242C204.903 33.3613 206.088 33.5023 207.177 33.335C210.465 32.8306 213.598 31.759 216.462 30.0581C217.515 29.4325 218.378 28.4955 219.341 27.7162C219.707 27.4188 220.073 27.0298 220.502 26.9138C223.296 26.1562 226.128 25.7633 229.015 26.3555C229.421 26.4388 229.804 26.6292 230.285 26.801C229.511 29.5235 228.017 31.6558 226.04 33.4824C224.392 35.0052 222.479 36.1339 220.416 36.9825C215.04 39.193 209.507 40.883 203.734 41.6906C201.204 42.045 198.66 42.077 196.133 41.5624C191.391 40.5978 188.358 37.1273 188.055 32.3038C187.625 25.4448 191.072 20.4117 197.879 18.2852C200.451 17.4815 203.124 16.9482 205.785 16.4906C209.678 15.8209 213.595 15.2767 217.515 14.7813C220.014 14.466 222.498 14.7063 224.865 15.6421C227.605 16.7246 229.445 18.6524 230.219 21.5192C230.329 21.9255 230.344 22.3569 230.438 23.0356Z" fill="#E3FF0C"/>
<path d="M104.83 32.0943C105.869 31.7123 107.177 31.438 107.354 30.1215C107.539 28.7468 106.289 28.2129 105.322 27.6822C103.184 26.5087 100.929 25.5749 98.5173 25.1308C96.0217 24.6706 93.533 24.6392 91.3127 26.1216C89.9925 27.0029 89.0622 28.2366 89.268 29.9088C89.4598 31.4642 90.5336 32.2641 91.8757 32.7345C92.6381 33.0024 93.4423 33.1293 94.2485 33.1845C94.6731 33.2133 97.4178 33.2915 99.4065 33.1088C101.804 32.8877 103.308 32.6538 104.83 32.0943ZM100.143 20.1778V18.1333C103.493 17.775 106.877 17.9532 110.129 17.8244C110.338 17.9744 110.467 18.0173 110.503 18.1C111.716 20.9142 113.779 23.0074 116.135 24.8988C118.327 26.6587 120.519 28.4417 122.518 30.41C123.769 31.6411 124.798 33.155 125.68 34.6829C126.605 36.2871 126.638 38.0643 125.89 39.689C121.919 38.8962 118.062 38.1272 114.036 37.3235C113.847 36.846 113.575 36.1608 113.255 35.3539C112.406 35.8135 111.68 36.2493 110.919 36.6088C108.496 37.7522 105.91 38.3771 103.276 38.7328C98.8757 39.3276 94.4692 39.9102 90.0472 40.2896C88.2412 40.4447 86.3484 40.2473 84.5668 39.8717C81.6825 39.2635 79.836 37.3658 79.0125 34.5336C77.3024 28.6551 80.6814 19.7721 88.4522 17.7859C91.8744 16.9111 95.1164 17.4546 98.1982 19.112C98.8127 19.4421 99.4219 19.7824 100.143 20.1778Z" fill="#E3FF0C"/>
<path d="M81.8965 83.2338C83.3827 82.9319 83.7661 82.0269 82.9793 80.7451C82.6177 80.1561 82.1294 79.6248 81.6237 79.146C79.992 77.6002 78.0715 76.5074 75.9734 75.714C74.2775 75.0731 72.5255 74.7648 70.7151 74.9269C68.94 75.0859 67.3096 75.6371 66.0962 77.015C64.5617 78.7576 64.9117 80.4766 67.0085 81.4591C67.6866 81.777 68.4265 82.0288 69.1645 82.1436C72.4786 82.6569 81.0034 83.4151 81.8965 83.2338ZM87.8767 90.6766C79.7887 88.7552 71.6357 87.483 63.2788 87.8682C61.7225 87.9393 60.1262 87.8419 58.5924 87.5753C54.5204 86.8684 52.5915 84.0234 53.3186 79.944C53.8108 77.1842 55.2269 74.8808 57.2574 73.0215C63.2885 67.4969 70.2705 66.3842 77.9371 68.8678C79.0122 69.2158 80.0602 69.6958 81.051 70.2412C85.8803 72.8991 90.1447 76.2805 93.8139 80.3868C95.295 82.0449 96.6023 83.8471 97.3744 85.9512C97.7031 86.8485 97.9354 87.8214 97.9869 88.7719C98.093 90.7042 97.146 91.6835 95.23 91.8258C94.907 91.8495 94.5808 91.829 94.2559 91.829C94.2456 91.8835 89.978 91.1759 87.8767 90.6766Z" fill="#E3FF0C"/>
<path d="M131.878 77.6553C135.005 77.9565 141.113 77.8379 142.204 77.4675C141.671 74.9448 139.525 73.3426 136.793 73.4278C134.038 73.5137 132.257 75.0089 131.878 77.6553ZM151.232 83.3356H131.656C131.267 86.8997 131.849 90.0223 135.236 90.203C137.128 90.3043 140.069 88.9507 141.354 87.4605C141.604 87.1715 142.055 86.894 142.418 86.8876C145.175 86.8401 147.932 86.8613 150.858 86.8613C150.735 87.3939 150.694 87.8009 150.549 88.1668C148.927 92.2642 145.893 94.7823 141.602 95.5905C138.846 96.109 136.005 97.0248 133.199 97.2005C130.121 97.3934 127.545 96.2346 125.966 93.5588C123.495 89.3711 122.432 83.9689 122.422 79.1326C122.411 74.0719 125.673 69.89 130.797 68.1826C134.44 66.9681 138.152 66.8854 141.838 67.9487C146.839 69.3907 149.736 72.8356 150.906 77.7982C151.316 79.5318 151.479 81.2969 151.232 83.3356Z" fill="#E3FF0C"/>
<path d="M273.899 78.3096C273.193 75.271 271.615 74.0854 268.865 74.2808C266.363 74.4584 264.257 76.2824 264.117 78.3096H273.899ZM281.75 83.7311H263.099C262.128 86.9786 263.65 89.2903 266.709 89.6069C268.71 89.8139 270.464 89.3781 271.889 87.8713C272.161 87.5836 272.585 87.2676 272.944 87.2606C275.591 87.2086 278.239 87.2324 281.048 87.2324C280.894 87.7252 280.814 88.1296 280.646 88.4949C279.054 91.9738 276.467 94.3657 272.772 95.4777C269.325 96.5147 265.833 96.6172 262.345 95.7045C256.086 94.0677 252.714 89.0583 253.531 82.6825C254.443 75.5639 259.456 70.0963 266.471 68.6158C268.718 68.1409 270.997 68.0787 273.255 68.5223C277.193 69.2958 279.894 71.5435 281.167 75.38C282.047 78.0353 282.207 80.7451 281.75 83.7311Z" fill="#E3FF0C"/>
<path d="M130.28 21.2199C130.738 18.814 132.117 18.0519 133.943 17.8353C139.403 17.1861 143.644 19.4267 147.088 23.4304C149.331 26.0389 150.447 29.1788 151.121 32.5032C152.064 37.1536 151.401 41.6092 149.555 46.061C147.464 46.0834 145.385 46.202 143.104 45.8732C143.49 45.181 143.774 44.6811 144.049 44.1767C146.42 39.8192 146.649 35.3418 144.737 30.774C143.991 28.9923 142.835 27.5137 141.157 26.4882C140.068 25.8223 138.89 25.4493 137.604 25.5595C136.526 25.6518 136.121 26.1928 136.484 27.2022C136.792 28.0572 137.286 28.8455 137.699 29.6627C138.33 30.9124 139.091 32.1141 139.57 33.4197C140.977 37.2568 140.125 40.7286 137.617 43.8729C137.208 44.3876 136.782 44.7067 136.1 44.4036C134.431 43.6595 132.758 42.9224 131.016 42.1521C131.294 41.656 131.467 41.3272 131.658 41.0087C133.054 38.686 133.156 36.2749 131.889 33.9157C131.155 32.55 130.275 31.2034 129.21 30.085C126.938 27.7002 124.487 25.4846 122.14 23.1702C121.026 22.0717 119.951 20.929 118.914 19.7587C118.459 19.2453 118.142 18.6108 117.672 17.8955C118.13 17.7917 118.422 17.6629 118.711 17.6693C121.473 17.7327 124.234 17.8372 126.996 17.8859C127.684 17.8981 128.082 18.2115 128.44 18.7383C128.947 19.4824 129.51 20.1881 130.28 21.2199Z" fill="#E3FF0C"/>
<path d="M106.963 51.6959H116.39C116.419 52.0304 116.487 52.4406 116.486 52.8501C116.473 57.1705 116.539 61.4928 116.408 65.8093C116.229 71.6923 117.111 77.4169 118.5 83.1082C120.125 89.7627 121.609 96.45 123.194 103.114C123.399 103.974 123.222 104.543 122.535 105.079C121.321 106.025 120.019 106.735 118.279 107C118.129 106.36 117.952 105.763 117.853 105.153C116.43 96.4897 114.101 88.0944 110.499 80.0606C109.039 76.8048 107.804 73.456 107.279 69.9035C107.052 68.3582 106.87 66.7925 106.846 65.2332C106.783 61.1839 106.817 57.1333 106.824 53.0834C106.825 52.6668 106.905 52.2509 106.963 51.6959Z" fill="#E3FF0C"/>
<path d="M193.979 68.3909H199.693C199.603 71.0077 199.52 73.4464 199.43 76.0824C197.514 76.167 195.691 76.2478 193.649 76.3375C193.478 78.0949 193.449 79.8574 193.532 81.6128C193.613 83.335 193.651 85.0911 194.03 86.7594C194.416 88.461 195.195 90.0741 195.849 91.8527C192.162 93.2877 188.237 94.1734 184.102 94.6701C183.988 94.2593 183.829 93.9202 183.81 93.5735C183.698 91.5796 183.556 89.5851 183.543 87.59C183.522 84.4027 183.595 81.2155 183.626 78.0282C183.631 77.4969 183.627 76.9656 183.627 76.3144C182.576 76.2407 181.632 76.1754 180.609 76.1036V68.3505C181.675 68.2934 182.632 68.2422 183.781 68.1806C183.884 65.6055 183.987 63.047 184.092 60.4327H194.276C194.175 63.1149 194.081 65.6676 193.979 68.3909Z" fill="#E3FF0C"/>
<path d="M90.9198 51.7869H100.117C100.158 52.2368 100.235 52.6963 100.236 53.1565C100.247 56.2329 100.299 59.3105 100.229 62.385C100.123 67.0245 101.213 71.3686 103.309 75.4768C104.413 77.6399 105.596 79.762 106.74 81.9045C110.443 88.8443 112.708 96.2199 113.474 104.045C113.541 104.72 113.483 105.407 113.483 106.26C112.875 106.029 112.408 105.906 111.995 105.682C111.045 105.168 110.093 104.647 109.195 104.049C108.251 103.421 107.268 102.798 106.486 101.994C105.59 101.074 106.274 99.8289 106.192 98.738C105.84 94.0023 104.231 89.6736 101.896 85.6224C100.31 82.8697 98.3998 80.3029 96.6575 77.6386C95.3881 75.6979 94.0524 73.7906 92.9355 71.7647C91.5895 69.3241 90.914 66.6265 90.8361 63.8494C90.7293 60.0745 90.7918 56.295 90.7898 52.5175C90.7898 52.3124 90.8606 52.1067 90.9198 51.7869Z" fill="#E3FF0C"/>
<path d="M176.908 68.9498V76.8009C176.269 76.5131 175.792 76.2959 175.312 76.0831C174.057 75.5268 172.75 75.1768 171.369 75.3313C168.794 75.6184 166.825 76.8522 165.94 79.3338C165.041 81.85 165.346 84.2848 167.298 86.2447C169.295 88.2495 171.761 88.5283 174.376 87.6778C175.178 87.417 175.923 86.9786 176.843 86.5524V94.2144C171.704 97.3094 163.703 96.1 159.3 91.3848C154.554 86.3011 154.259 78.3538 158.647 72.81C162.782 67.5846 171.232 65.7939 176.908 68.9498Z" fill="#E3FF0C"/>
<path d="M237.941 94.1676C236.389 93.7953 235.03 93.1364 233.906 92.1186C233.539 91.7867 233.462 91.0759 233.367 90.5189C233.032 88.5545 232.865 86.5543 232.418 84.6181C231.536 80.8027 229.625 77.4828 226.973 74.6205C225.32 72.8381 223.517 71.1942 221.784 69.4855C221.293 69.0004 220.81 68.5056 220.133 67.8237C220.826 67.725 221.232 67.609 221.636 67.6199C224.507 67.6955 227.377 67.8256 230.249 67.8775C231.301 67.8961 231.901 68.3633 232.419 69.2471C234.227 72.3299 235.909 75.4646 237.015 78.8781C237.107 79.162 237.239 79.4338 237.444 79.9343C237.858 79.3184 238.161 78.896 238.435 78.4564C240.146 75.7024 241.875 72.9593 243.544 70.179C244.021 69.383 244.57 69.0991 245.509 69.1471C248.428 69.2971 251.351 69.3426 254.553 69.4375C254.179 70.0527 253.911 70.5469 253.594 71.0071C250.5 75.505 247.374 79.9817 244.307 84.4976C242.454 87.224 240.687 90.0088 238.88 92.766C238.588 93.212 238.287 93.6523 237.941 94.1676Z" fill="#E3FF0C"/>
<path d="M215.656 67.8442C215.891 72.1512 217.915 75.6178 219.701 79.1768C220.544 80.8547 221.352 82.5531 221.692 84.5252C221.268 84.5502 220.947 84.6303 220.65 84.5778C218.031 84.117 215.458 84.4829 212.944 85.1456C211.747 85.4609 212.944 85.1456 212.002 85.3994C211.335 85.2751 209.549 84.0138 209.281 83.8324C206.377 81.8686 205.03 79.0127 204.685 75.6499C204.451 73.3586 204.385 71.0501 204.23 68.5262C208.109 68.2948 211.748 68.0775 215.656 67.8442Z" fill="#E3FF0C"/>
<path d="M210.476 53.3231C210.826 53.3231 210.934 53.3174 211.041 53.3238C213.972 53.5039 216.276 55.4003 216.563 57.8691C216.839 60.2488 215.077 62.533 212.259 63.3925C210.609 63.8962 208.952 63.9206 207.357 63.1822C204.041 61.6466 203.382 57.6877 206.007 55.1574C207.319 53.8929 208.936 53.3923 210.476 53.3231Z" fill="#E3FF0C"/>
</svg>
